####
#
# OBJ File Generated by Meshlab
#
####
# Object Untitled_016-mesh.0.obj
#
# Vertices: 78
# Faces: 42
#
####
mtllib ./Untitled_016-mesh.0.obj.mtl

vn -0.025546 0.000000 0.999674
v -69.862610 154.683502 -162.813400
vn 0.999870 0.000000 0.016123
v -69.862610 154.683502 -162.813400
vn 0.000000 -1.000000 0.000000
v -69.862610 154.683502 -162.813400
vn 0.000000 1.000000 0.000000
v -69.862610 160.683502 -162.813400
vn 0.999870 0.000000 0.016123
v -69.862610 160.683502 -162.813400
vn -0.025546 0.000000 0.999674
v -69.862610 149.739197 -162.813400
vn 0.999870 0.000000 0.016123
v -69.862610 149.739197 -162.813400
vn -0.000795 0.999516 0.031114
v -69.862610 149.739197 -162.813400
vn 0.000000 -0.999515 -0.031127
v -69.862610 165.739197 -162.813400
vn 0.999870 0.000000 0.016123
v -69.862610 165.739197 -162.813400
vn 0.000000 -0.999515 -0.031127
v -65.898132 165.739197 -162.813400
vn -0.999993 -0.000586 0.003719
v -65.898132 165.739197 -162.813400
vn -0.999998 0.000000 0.001981
v -65.894791 154.683502 -162.712006
vn -0.025546 0.000000 0.999674
v -65.894791 154.683502 -162.712006
vn 0.000000 -1.000000 0.000000
v -65.894791 154.683502 -162.712006
vn 0.000000 1.000000 0.000000
v -65.894791 160.683502 -162.712006
vn -0.999996 -0.000303 0.002880
v -65.894791 160.683502 -162.712006
vn -0.000408 0.999487 0.032031
v -65.894791 149.739197 -162.712006
vn -0.999998 0.000000 0.001981
v -65.894791 149.739197 -162.712006
vn -0.025546 0.000000 0.999674
v -65.894791 149.739197 -162.712006
vn 1.000000 0.000000 0.000000
v -69.891449 154.683502 -161.024994
vn 0.000000 -1.000000 0.000000
v -69.891449 154.683502 -161.024994
vn 0.000000 0.000000 1.000000
v -69.891449 154.683502 -161.024994
vn 0.999870 0.000000 0.016123
v -69.891449 154.683502 -161.024994
vn 0.000000 -1.000000 0.000000
v -69.891449 154.683502 -149.024994
vn 1.000000 0.000000 0.000000
v -69.891449 154.683502 -149.024994
vn 0.000000 0.000000 -1.000000
v -69.891449 154.683502 -149.024994
vn 1.000000 0.000000 0.000000
v -69.891449 160.683502 -161.024994
vn 0.000000 1.000000 0.000000
v -69.891449 160.683502 -161.024994
vn 0.000000 0.000000 1.000000
v -69.891449 160.683502 -161.024994
vn 0.999870 0.000000 0.016123
v -69.891449 160.683502 -161.024994
vn 0.000000 1.000000 0.000000
v -69.891449 160.683502 -149.024994
vn 1.000000 0.000000 0.000000
v -69.891449 160.683502 -149.024994
vn 0.000000 0.000000 -1.000000
v -69.891449 160.683502 -149.024994
vn 0.000000 0.000000 1.000000
v -69.891449 149.683502 -161.024994
vn 1.000000 0.000000 0.000000
v -69.891449 149.683502 -161.024994
vn 0.999870 0.000000 0.016123
v -69.891449 149.683502 -161.024994
vn -0.000408 0.999487 0.032031
v -69.891449 149.683502 -161.024994
vn 0.000000 1.000000 0.000000
v -69.891449 149.683502 -161.024994
vn 1.000000 0.000000 0.000000
v -69.891449 149.683502 -149.024994
vn 0.000000 0.000000 -1.000000
v -69.891449 149.683502 -149.024994
vn 0.000000 1.000000 0.000000
v -69.891449 149.683502 -149.024994
vn 1.000000 0.000000 0.000000
v -69.891449 165.683502 -161.024994
vn 0.000000 -1.000000 0.000000
v -69.891449 165.683502 -161.024994
vn 0.000000 0.000000 1.000000
v -69.891449 165.683502 -161.024994
vn 0.999870 0.000000 0.016123
v -69.891449 165.683502 -161.024994
vn 0.000000 -0.999515 -0.031127
v -69.891449 165.683502 -161.024994
vn 0.000000 -1.000000 0.000000
v -69.891449 165.683502 -149.024994
vn 1.000000 0.000000 0.000000
v -69.891449 165.683502 -149.024994
vn 0.000000 0.000000 -1.000000
v -69.891449 165.683502 -149.024994
vn 0.000000 -1.000000 0.000000
v -65.891449 154.683502 -161.024994
vn 0.000000 0.000000 1.000000
v -65.891449 154.683502 -161.024994
vn -1.000000 0.000000 0.000433
v -65.891449 154.683502 -161.024994
vn 0.000000 -1.000000 0.000000
v -65.891449 154.683502 -149.024994
vn 0.000000 0.000000 -1.000000
v -65.891449 154.683502 -149.024994
vn -1.000000 0.000000 0.000000
v -65.891449 154.683502 -149.024994
vn 0.000000 1.000000 0.000000
v -65.891449 160.683502 -161.024994
vn -0.999998 0.000000 0.001981
v -65.891449 160.683502 -161.024994
vn 0.000000 0.000000 1.000000
v -65.891449 160.683502 -161.024994
vn -1.000000 0.000000 0.000000
v -65.891449 160.683502 -161.024994
vn 0.000000 1.000000 0.000000
v -65.891449 160.683502 -149.024994
vn 0.000000 0.000000 -1.000000
v -65.891449 160.683502 -149.024994
vn -1.000000 0.000000 0.000000
v -65.891449 160.683502 -149.024994
vn 0.000000 0.000000 1.000000
v -65.891449 149.683502 -161.024994
vn -1.000000 0.000000 0.000130
v -65.891449 149.683502 -161.024994
vn 0.000000 0.999456 0.032996
v -65.891449 149.683502 -161.024994
vn 0.000000 1.000000 0.000000
v -65.891449 149.683502 -161.024994
vn -1.000000 0.000000 0.000000
v -65.891449 149.683502 -149.024994
vn 0.000000 0.000000 -1.000000
v -65.891449 149.683502 -149.024994
vn 0.000000 1.000000 0.000000
v -65.891449 149.683502 -149.024994
vn -0.999996 -0.000303 0.002880
v -65.891449 165.683502 -161.024994
vn 0.000000 -1.000000 0.000000
v -65.891449 165.683502 -161.024994
vn 0.000000 0.000000 1.000000
v -65.891449 165.683502 -161.024994
vn -1.000000 0.000000 0.000000
v -65.891449 165.683502 -161.024994
vn 0.000000 -0.999515 -0.031127
v -65.891449 165.683502 -161.024994
vn 0.000000 -1.000000 0.000000
v -65.891449 165.683502 -149.024994
vn 0.000000 0.000000 -1.000000
v -65.891449 165.683502 -149.024994
vn -1.000000 0.000000 0.000000
v -65.891449 165.683502 -149.024994
# 78 vertices, 0 vertices normals


usemtl material_0
vt 0.000488 0.801179
vt 0.198821 0.999512
vt 0.000488 0.999512
f 67/1/67 42/2/42 70/3/70
vt 0.199512 0.998821
vt 0.001179 0.800488
vt 0.199512 0.800488
f 76/4/76 44/5/44 72/6/72
vt 0.200488 0.801179
vt 0.398821 0.999512
vt 0.200488 0.999512
f 1/7/1 20/8/20 14/9/14
vt 0.399512 0.998821
vt 0.201179 0.800488
vt 0.399512 0.800488
f 65/10/65 56/11/56 53/12/53
vt 0.400488 0.801179
vt 0.598821 0.999512
vt 0.400488 0.999512
f 5/13/5 46/14/46 31/15/31
vt 0.599512 0.998821
vt 0.401179 0.800488
vt 0.599512 0.800488
f 24/16/24 7/17/7 2/18/2
vt 0.600488 0.801179
vt 0.798821 0.999512
vt 0.600488 0.999512
f 69/19/69 27/20/27 55/21/55
vt 0.799512 0.998821
vt 0.601179 0.800488
vt 0.799512 0.800488
f 19/22/19 53/23/53 13/24/13
vt 0.800488 0.801179
vt 0.998821 0.999512
vt 0.800488 0.999512
f 51/25/51 25/26/25 22/27/22
vt 0.999512 0.998821
vt 0.801179 0.800488
vt 0.999512 0.800488
f 52/28/52 35/29/35 64/30/64
vt 0.000488 0.601179
vt 0.198821 0.799512
vt 0.000488 0.799512
f 73/31/73 30/32/30 59/33/59
vt 0.199512 0.798821
vt 0.001179 0.600488
vt 0.199512 0.600488
f 61/34/61 29/35/29 32/36/32
vt 0.200488 0.601179
vt 0.398821 0.799512
vt 0.200488 0.799512
f 17/37/17 71/38/71 12/39/12
vt 0.399512 0.798821
vt 0.201179 0.600488
vt 0.399512 0.600488
f 62/40/62 50/41/50 77/42/77
vt 0.400488 0.601179
vt 0.598821 0.799512
vt 0.400488 0.799512
f 16/43/16 29/44/29 57/45/57
vt 0.599512 0.798821
vt 0.401179 0.600488
vt 0.599512 0.600488
f 21/46/21 40/47/40 36/48/36
vt 0.600488 0.601179
vt 0.798821 0.799512
vt 0.600488 0.799512
f 15/49/15 22/50/22 3/51/3
vt 0.799512 0.798821
vt 0.601179 0.600488
vt 0.799512 0.600488
f 75/52/75 9/53/9 11/54/11
vt 0.800488 0.601179
vt 0.998821 0.799512
vt 0.800488 0.799512
f 33/55/33 43/56/43 49/57/49
vt 0.999512 0.798821
vt 0.801179 0.600488
vt 0.999512 0.600488
f 60/58/60 78/59/78 74/60/74
vt 0.000488 0.401179
vt 0.198821 0.599512
vt 0.000488 0.599512
f 18/61/18 38/62/38 66/63/66
vt 0.001179 0.400488
vt 0.199512 0.400488
vt 0.199512 0.598821
f 67/64/67 39/65/39 42/66/42
vt 0.398821 0.599512
vt 0.200488 0.599512
vt 0.200488 0.401179
f 76/67/76 48/68/48 44/69/44
vt 0.201179 0.400488
vt 0.399512 0.400488
vt 0.399512 0.598821
f 1/70/1 6/71/6 20/72/20
vt 0.598821 0.599512
vt 0.400488 0.599512
vt 0.400488 0.401179
f 65/73/65 68/74/68 56/75/56
vt 0.401179 0.400488
vt 0.599512 0.400488
vt 0.599512 0.598821
f 5/76/5 10/77/10 46/78/46
vt 0.798821 0.599512
vt 0.600488 0.599512
vt 0.600488 0.401179
f 24/79/24 37/80/37 7/81/7
vt 0.601179 0.400488
vt 0.799512 0.400488
vt 0.799512 0.598821
f 69/82/69 41/83/41 27/84/27
vt 0.998821 0.599512
vt 0.800488 0.599512
vt 0.800488 0.401179
f 19/85/19 65/86/65 53/87/53
vt 0.801179 0.400488
vt 0.999512 0.400488
vt 0.999512 0.598821
f 51/88/51 54/89/54 25/90/25
vt 0.198821 0.399512
vt 0.000488 0.399512
vt 0.000488 0.201179
f 52/91/52 23/92/23 35/93/35
vt 0.001179 0.200488
vt 0.199512 0.200488
vt 0.199512 0.398821
f 73/94/73 45/95/45 30/96/30
vt 0.398821 0.399512
vt 0.200488 0.399512
vt 0.200488 0.201179
f 61/97/61 57/98/57 29/99/29
vt 0.201179 0.200488
vt 0.399512 0.200488
vt 0.399512 0.398821
f 17/100/17 58/101/58 71/102/71
vt 0.598821 0.399512
vt 0.400488 0.399512
vt 0.400488 0.201179
f 62/103/62 34/104/34 50/105/50
vt 0.401179 0.200488
vt 0.599512 0.200488
vt 0.599512 0.398821
f 16/106/16 4/107/4 29/108/29
vt 0.798821 0.399512
vt 0.600488 0.399512
vt 0.600488 0.201179
f 21/109/21 26/110/26 40/111/40
vt 0.601179 0.200488
vt 0.799512 0.200488
vt 0.799512 0.398821
f 15/112/15 51/113/51 22/114/22
vt 0.998821 0.399512
vt 0.800488 0.399512
vt 0.800488 0.201179
f 75/115/75 47/116/47 9/117/9
vt 0.801179 0.200488
vt 0.999512 0.200488
vt 0.999512 0.398821
f 33/118/33 28/119/28 43/120/43
vt 0.198821 0.199512
vt 0.000488 0.199512
vt 0.000488 0.001179
f 60/121/60 63/122/63 78/123/78
vt 0.001179 0.000488
vt 0.199512 0.000488
vt 0.199512 0.198821
f 18/124/18 8/125/8 38/126/38
# 42 faces, 126 coords texture

# End of File