####
#
# OBJ File Generated by Meshlab
#
####
# Object Untitled_014-mesh.0.obj
#
# Vertices: 144
# Faces: 92
#
####
mtllib ./Untitled_014-mesh.0.obj.mtl

vn 0.000000 -0.866017 -0.500015
v -60.920689 147.065201 -145.594894
vn 0.000000 -0.707107 -0.707107
v -60.920689 147.065201 -145.594894
vn -1.000000 0.000000 0.000000
v -60.920689 147.065201 -145.594894
vn 0.000000 -0.866017 0.500015
v -60.920689 147.065201 -129.767105
vn 0.000000 -0.707107 0.707107
v -60.920689 147.065201 -129.767105
vn -1.000000 0.000000 0.000000
v -60.920689 147.065201 -129.767105
vn -1.000000 0.000000 0.000000
v -60.920689 159.075607 -150.569794
vn 0.000000 0.000000 -1.000000
v -60.920689 159.075607 -150.569794
vn 0.000000 0.258833 -0.965922
v -60.920689 159.075607 -150.569794
vn -1.000000 0.000000 0.000000
v -60.920689 159.075607 -124.792198
vn 0.000000 0.000000 1.000000
v -60.920689 159.075607 -124.792198
vn 0.000000 0.258837 0.965921
v -60.920689 159.075607 -124.792198
vn 0.000000 -0.258833 -0.965922
v -60.920689 155.681900 -150.569794
vn -1.000000 0.000000 0.000000
v -60.920689 155.681900 -150.569794
vn 0.000000 0.000000 -1.000000
v -60.920689 155.681900 -150.569794
vn -1.000000 0.000000 0.000000
v -60.920689 155.681900 -124.792198
vn 0.000000 0.000000 1.000000
v -60.920689 155.681900 -124.792198
vn 0.000000 -0.258837 0.965921
v -60.920689 155.681900 -124.792198
vn 0.000000 0.707120 -0.707093
v -60.920689 167.692307 -145.594894
vn -1.000000 0.000000 0.000000
v -60.920689 167.692307 -145.594894
vn 0.000000 0.866017 -0.500015
v -60.920689 167.692307 -145.594894
vn 0.000000 0.866017 0.500015
v -60.920689 167.692307 -129.767105
vn 0.000000 0.707120 0.707093
v -60.920689 167.692307 -129.767105
vn -1.000000 0.000000 0.000000
v -60.920689 167.692307 -129.767105
vn -1.000000 0.000000 0.000000
v -60.920689 144.490005 -135.984207
vn 0.000000 -0.965931 0.258800
v -60.920689 144.490005 -135.984207
vn 0.000000 -1.000000 0.000000
v -60.920689 144.490005 -135.984207
vn -1.000000 0.000000 0.000000
v -60.920689 144.490005 -139.377808
vn 0.000000 -0.965931 -0.258801
v -60.920689 144.490005 -139.377808
vn 0.000000 -1.000000 0.000000
v -60.920689 144.490005 -139.377808
vn 0.000000 -0.707107 -0.707107
v -60.920689 149.464905 -147.994598
vn 0.000000 -0.499995 -0.866028
v -60.920689 149.464905 -147.994598
vn -1.000000 0.000000 0.000000
v -60.920689 149.464905 -147.994598
vn 0.000000 -0.707107 0.707107
v -60.920689 149.464905 -127.367401
vn 0.000000 -0.499993 0.866029
v -60.920689 149.464905 -127.367401
vn -1.000000 0.000000 0.000000
v -60.920689 149.464905 -127.367401
vn -1.000000 0.000000 0.000000
v -60.920689 152.403900 -149.691406
vn 0.000000 -0.499995 -0.866028
v -60.920689 152.403900 -149.691406
vn 0.000000 -0.258833 -0.965922
v -60.920689 152.403900 -149.691406
vn -1.000000 0.000000 0.000000
v -60.920689 152.403900 -125.670601
vn 0.000000 -0.258837 0.965921
v -60.920689 152.403900 -125.670601
vn 0.000000 -0.499993 0.866029
v -60.920689 152.403900 -125.670601
vn -1.000000 0.000000 0.000000
v -60.920689 169.389206 -142.655899
vn 0.000000 0.965931 -0.258801
v -60.920689 169.389206 -142.655899
vn 0.000000 0.866017 -0.500015
v -60.920689 169.389206 -142.655899
vn -1.000000 0.000000 0.000000
v -60.920689 169.389206 -132.706100
vn 0.000000 0.965931 0.258800
v -60.920689 169.389206 -132.706100
vn 0.000000 0.866017 0.500015
v -60.920689 169.389206 -132.706100
vn 0.000000 0.499983 -0.866035
v -60.920689 165.292694 -147.994598
vn 0.000000 0.707120 -0.707093
v -60.920689 165.292694 -147.994598
vn -1.000000 0.000000 0.000000
v -60.920689 165.292694 -147.994598
vn 0.000000 0.707120 0.707093
v -60.920689 165.292694 -127.367401
vn 0.000000 0.499982 0.866036
v -60.920689 165.292694 -127.367401
vn -1.000000 0.000000 0.000000
v -60.920689 165.292694 -127.367401
vn 0.000000 -0.965931 -0.258801
v -60.920689 145.368301 -142.655899
vn -1.000000 0.000000 0.000000
v -60.920689 145.368301 -142.655899
vn 0.000000 -0.866017 -0.500015
v -60.920689 145.368301 -142.655899
vn 0.000000 -0.866017 0.500015
v -60.920689 145.368301 -132.706100
vn -1.000000 0.000000 0.000000
v -60.920689 145.368301 -132.706100
vn 0.000000 -0.965931 0.258800
v -60.920689 145.368301 -132.706100
vn 0.000000 0.499983 -0.866035
v -60.920689 162.353607 -149.691406
vn 0.000000 0.258833 -0.965922
v -60.920689 162.353607 -149.691406
vn -1.000000 0.000000 0.000000
v -60.920689 162.353607 -149.691406
vn 0.000000 0.499982 0.866036
v -60.920689 162.353607 -125.670601
vn -1.000000 0.000000 0.000000
v -60.920689 162.353607 -125.670601
vn 0.000000 0.258837 0.965921
v -60.920689 162.353607 -125.670601
vn 0.000000 1.000000 0.000000
v -60.920689 170.267502 -135.984207
vn -1.000000 0.000000 0.000000
v -60.920689 170.267502 -135.984207
vn 0.000000 0.965931 0.258800
v -60.920689 170.267502 -135.984207
vn 0.000000 0.965931 -0.258801
v -60.920689 170.267502 -139.377808
vn 0.000000 1.000000 0.000000
v -60.920689 170.267502 -139.377808
vn -1.000000 0.000000 0.000000
v -60.920689 170.267502 -139.377808
vn 1.000000 0.000000 0.000000
v -54.420689 147.065201 -145.594894
vn 0.000000 -0.866017 -0.500015
v -54.420689 147.065201 -145.594894
vn 0.000000 -0.707107 -0.707107
v -54.420689 147.065201 -145.594894
vn 1.000000 0.000000 0.000000
v -54.420689 147.065201 -129.767105
vn 0.000000 -0.866017 0.500015
v -54.420689 147.065201 -129.767105
vn 0.000000 -0.707107 0.707107
v -54.420689 147.065201 -129.767105
vn 0.000000 0.000000 -1.000000
v -54.420689 159.075607 -150.569794
vn 1.000000 0.000000 0.000000
v -54.420689 159.075607 -150.569794
vn 0.000000 0.258833 -0.965922
v -54.420689 159.075607 -150.569794
vn 0.000000 0.000000 1.000000
v -54.420689 159.075607 -124.792198
vn 1.000000 0.000000 0.000000
v -54.420689 159.075607 -124.792198
vn 0.000000 0.258837 0.965921
v -54.420689 159.075607 -124.792198
vn 0.000000 -0.258833 -0.965922
v -54.420689 155.681900 -150.569794
vn 0.000000 0.000000 -1.000000
v -54.420689 155.681900 -150.569794
vn 1.000000 0.000000 0.000000
v -54.420689 155.681900 -150.569794
vn 0.000000 0.000000 1.000000
v -54.420689 155.681900 -124.792198
vn 0.000000 -0.258837 0.965921
v -54.420689 155.681900 -124.792198
vn 1.000000 0.000000 0.000000
v -54.420689 155.681900 -124.792198
vn 1.000000 0.000000 0.000000
v -54.420689 167.692307 -145.594894
vn 0.000000 0.707120 -0.707093
v -54.420689 167.692307 -145.594894
vn 0.000000 0.866017 -0.500015
v -54.420689 167.692307 -145.594894
vn 1.000000 0.000000 0.000000
v -54.420689 167.692307 -129.767105
vn 0.000000 0.866017 0.500015
v -54.420689 167.692307 -129.767105
vn 0.000000 0.707120 0.707093
v -54.420689 167.692307 -129.767105
vn 1.000000 0.000000 0.000000
v -54.420689 144.490005 -135.984207
vn 0.000000 -0.965931 0.258800
v -54.420689 144.490005 -135.984207
vn 0.000000 -1.000000 0.000000
v -54.420689 144.490005 -135.984207
vn 1.000000 0.000000 0.000000
v -54.420689 144.490005 -139.377808
vn 0.000000 -0.965931 -0.258801
v -54.420689 144.490005 -139.377808
vn 0.000000 -1.000000 0.000000
v -54.420689 144.490005 -139.377808
vn 1.000000 0.000000 0.000000
v -54.420689 149.464905 -147.994598
vn 0.000000 -0.707107 -0.707107
v -54.420689 149.464905 -147.994598
vn 0.000000 -0.499995 -0.866028
v -54.420689 149.464905 -147.994598
vn 1.000000 0.000000 0.000000
v -54.420689 149.464905 -127.367401
vn 0.000000 -0.707107 0.707107
v -54.420689 149.464905 -127.367401
vn 0.000000 -0.499993 0.866029
v -54.420689 149.464905 -127.367401
vn 0.000000 -0.499995 -0.866028
v -54.420689 152.403900 -149.691406
vn 0.000000 -0.258833 -0.965922
v -54.420689 152.403900 -149.691406
vn 1.000000 0.000000 0.000000
v -54.420689 152.403900 -149.691406
vn 0.000000 -0.258837 0.965921
v -54.420689 152.403900 -125.670601
vn 1.000000 0.000000 0.000000
v -54.420689 152.403900 -125.670601
vn 0.000000 -0.499993 0.866029
v -54.420689 152.403900 -125.670601
vn 0.000000 0.965931 -0.258801
v -54.420689 169.389206 -142.655899
vn 0.000000 0.866017 -0.500015
v -54.420689 169.389206 -142.655899
vn 1.000000 0.000000 0.000000
v -54.420689 169.389206 -142.655899
vn 0.000000 0.965931 0.258800
v -54.420689 169.389206 -132.706100
vn 0.000000 0.866017 0.500015
v -54.420689 169.389206 -132.706100
vn 1.000000 0.000000 0.000000
v -54.420689 169.389206 -132.706100
vn 1.000000 0.000000 0.000000
v -54.420689 165.292694 -147.994598
vn 0.000000 0.499983 -0.866035
v -54.420689 165.292694 -147.994598
vn 0.000000 0.707120 -0.707093
v -54.420689 165.292694 -147.994598
vn 1.000000 0.000000 0.000000
v -54.420689 165.292694 -127.367401
vn 0.000000 0.707120 0.707093
v -54.420689 165.292694 -127.367401
vn 0.000000 0.499982 0.866036
v -54.420689 165.292694 -127.367401
vn 0.000000 -0.965931 -0.258801
v -54.420689 145.368301 -142.655899
vn 0.000000 -0.866017 -0.500015
v -54.420689 145.368301 -142.655899
vn 1.000000 0.000000 0.000000
v -54.420689 145.368301 -142.655899
vn 0.000000 -0.866017 0.500015
v -54.420689 145.368301 -132.706100
vn 0.000000 -0.965931 0.258800
v -54.420689 145.368301 -132.706100
vn 1.000000 0.000000 0.000000
v -54.420689 145.368301 -132.706100
vn 0.000000 0.499983 -0.866035
v -54.420689 162.353607 -149.691406
vn 0.000000 0.258833 -0.965922
v -54.420689 162.353607 -149.691406
vn 1.000000 0.000000 0.000000
v -54.420689 162.353607 -149.691406
vn 0.000000 0.499982 0.866036
v -54.420689 162.353607 -125.670601
vn 1.000000 0.000000 0.000000
v -54.420689 162.353607 -125.670601
vn 0.000000 0.258837 0.965921
v -54.420689 162.353607 -125.670601
vn 0.000000 1.000000 0.000000
v -54.420689 170.267502 -135.984207
vn 1.000000 0.000000 0.000000
v -54.420689 170.267502 -135.984207
vn 0.000000 0.965931 0.258800
v -54.420689 170.267502 -135.984207
vn 1.000000 0.000000 0.000000
v -54.420689 170.267502 -139.377808
vn 0.000000 0.965931 -0.258801
v -54.420689 170.267502 -139.377808
vn 0.000000 1.000000 0.000000
v -54.420689 170.267502 -139.377808
# 144 vertices, 0 vertices normals


usemtl material_0
vt 0.000488 0.858322
vt 0.141678 0.999512
vt 0.000488 0.999512
f 114/1/114 35/2/35 108/3/108
vt 0.142369 0.998821
vt 0.001179 0.857631
vt 0.142369 0.857631
f 107/4/107 5/5/5 78/6/78
vt 0.143345 0.858322
vt 0.284535 0.999512
vt 0.143345 0.999512
f 130/7/130 4/8/4 58/9/58
vt 0.285226 0.998821
vt 0.144036 0.857631
vt 0.285226 0.857631
f 98/10/98 60/11/60 26/12/26
vt 0.286203 0.858322
vt 0.427393 0.999512
vt 0.286203 0.999512
f 99/13/99 30/14/30 102/15/102
vt 0.428083 0.998821
vt 0.286893 0.857631
vt 0.428083 0.857631
f 101/16/101 55/17/55 127/18/127
vt 0.429060 0.858322
vt 0.570250 0.999512
vt 0.429060 0.999512
f 128/19/128 1/20/1 74/21/74
vt 0.570940 0.998821
vt 0.429750 0.857631
vt 0.570940 0.857631
f 75/22/75 31/23/31 104/24/104
vt 0.571917 0.858322
vt 0.713107 0.999512
vt 0.571917 0.999512
f 105/25/105 38/26/38 109/27/109
vt 0.713797 0.998821
vt 0.572607 0.857631
vt 0.713797 0.857631
f 110/28/110 13/29/13 85/30/85
vt 0.714774 0.858322
vt 0.855964 0.999512
vt 0.714774 0.999512
f 86/31/86 8/32/8 79/33/79
vt 0.856655 0.998821
vt 0.715465 0.857631
vt 0.856655 0.857631
f 81/34/81 62/35/62 134/36/134
vt 0.857631 0.858322
vt 0.998821 0.999512
vt 0.857631 0.999512
f 133/37/133 49/38/49 122/39/122
vt 0.999512 0.998821
vt 0.858322 0.857631
vt 0.999512 0.857631
f 123/40/123 19/41/19 92/42/92
vt 0.000488 0.715465
vt 0.141678 0.856655
vt 0.000488 0.856655
f 93/43/93 45/44/45 116/45/116
vt 0.142369 0.855964
vt 0.001179 0.714774
vt 0.142369 0.714774
f 115/46/115 70/47/70 143/48/143
vt 0.143345 0.715465
vt 0.284535 0.856655
vt 0.143345 0.856655
f 144/49/144 67/50/67 139/51/139
vt 0.285226 0.855964
vt 0.144036 0.714774
vt 0.285226 0.714774
f 141/52/141 47/53/47 118/54/118
vt 0.286203 0.715465
vt 0.427393 0.856655
vt 0.286203 0.856655
f 119/55/119 22/56/22 95/57/95
vt 0.428083 0.855964
vt 0.286893 0.714774
vt 0.428083 0.714774
f 96/58/96 52/59/52 125/60/125
vt 0.429060 0.715465
vt 0.570250 0.856655
vt 0.429060 0.856655
f 126/61/126 64/62/64 136/63/136
vt 0.429750 0.714774
vt 0.570940 0.714774
vt 0.570940 0.855964
f 120/64/120 83/65/83 129/66/129
vt 0.571917 0.715465
vt 0.713107 0.856655
vt 0.571917 0.856655
f 138/67/138 12/68/12 84/69/84
vt 0.713797 0.855964
vt 0.572607 0.714774
vt 0.713797 0.714774
f 82/70/82 17/71/17 88/72/88
vt 0.714774 0.715465
vt 0.855964 0.856655
vt 0.714774 0.856655
f 89/73/89 41/74/41 112/75/112
vt 0.856655 0.855964
vt 0.715465 0.714774
vt 0.856655 0.714774
f 3/76/3 65/77/65 43/78/43
vt 0.998821 0.856655
vt 0.857631 0.856655
vt 0.857631 0.715465
f 114/79/114 42/80/42 35/81/35
vt 0.858322 0.714774
vt 0.999512 0.714774
vt 0.999512 0.855964
f 107/82/107 34/83/34 5/84/5
vt 0.141678 0.713797
vt 0.000488 0.713797
vt 0.000488 0.572607
f 130/85/130 77/86/77 4/87/4
vt 0.001179 0.571917
vt 0.142369 0.571917
vt 0.142369 0.713107
f 98/88/98 131/89/131 60/90/60
vt 0.284535 0.713797
vt 0.143345 0.713797
vt 0.143345 0.572607
f 99/91/99 27/92/27 30/93/30
vt 0.144036 0.571917
vt 0.285226 0.571917
vt 0.285226 0.713107
f 101/94/101 29/95/29 55/96/55
vt 0.427393 0.713797
vt 0.286203 0.713797
vt 0.286203 0.572607
f 128/97/128 57/98/57 1/99/1
vt 0.286893 0.571917
vt 0.428083 0.571917
vt 0.428083 0.713107
f 75/100/75 2/101/2 31/102/31
vt 0.570250 0.713797
vt 0.429060 0.713797
vt 0.429060 0.572607
f 105/103/105 32/104/32 38/105/38
vt 0.429750 0.571917
vt 0.570940 0.571917
vt 0.570940 0.713107
f 110/106/110 39/107/39 13/108/13
vt 0.713107 0.713797
vt 0.571917 0.713797
vt 0.571917 0.572607
f 86/109/86 15/110/15 8/111/8
vt 0.572607 0.571917
vt 0.713797 0.571917
vt 0.713797 0.713107
f 81/112/81 9/113/9 62/114/62
vt 0.855964 0.713797
vt 0.714774 0.713797
vt 0.714774 0.572607
f 133/115/133 61/116/61 49/117/49
vt 0.715465 0.571917
vt 0.856655 0.571917
vt 0.856655 0.713107
f 123/118/123 50/119/50 19/120/19
vt 0.998821 0.713797
vt 0.857631 0.713797
vt 0.857631 0.572607
f 93/121/93 21/122/21 45/123/45
vt 0.858322 0.571917
vt 0.999512 0.571917
vt 0.999512 0.713107
f 115/124/115 44/125/44 70/126/70
vt 0.141678 0.570940
vt 0.000488 0.570940
vt 0.000488 0.429750
f 144/127/144 71/128/71 67/129/67
vt 0.001179 0.429060
vt 0.142369 0.429060
vt 0.142369 0.570250
f 141/130/141 69/131/69 47/132/47
vt 0.284535 0.570940
vt 0.143345 0.570940
vt 0.143345 0.429750
f 119/133/119 48/134/48 22/135/22
vt 0.144036 0.429060
vt 0.285226 0.429060
vt 0.285226 0.570250
f 96/136/96 23/137/23 52/138/52
vt 0.427393 0.570940
vt 0.286203 0.570940
vt 0.286203 0.429750
f 126/139/126 53/140/53 64/141/64
vt 0.286893 0.429060
vt 0.428083 0.429060
vt 0.428083 0.570250
f 83/142/83 90/143/90 76/144/76
vt 0.570250 0.570940
vt 0.429060 0.570940
vt 0.429060 0.429750
f 90/145/90 113/146/113 76/147/76
vt 0.429750 0.429060
vt 0.570940 0.429060
vt 0.570940 0.570250
f 113/148/113 106/149/106 76/150/76
vt 0.713107 0.570940
vt 0.571917 0.570940
vt 0.571917 0.429750
f 76/151/76 132/152/132 129/153/129
vt 0.572607 0.429060
vt 0.713797 0.429060
vt 0.713797 0.570250
f 132/154/132 97/155/97 129/156/129
vt 0.855964 0.570940
vt 0.714774 0.570940
vt 0.714774 0.429750
f 97/157/97 100/158/100 129/159/129
vt 0.715465 0.429060
vt 0.856655 0.429060
vt 0.856655 0.570250
f 129/160/129 73/161/73 135/162/135
vt 0.998821 0.570940
vt 0.857631 0.570940
vt 0.857631 0.429750
f 73/163/73 103/164/103 111/165/111
vt 0.999512 0.570250
vt 0.858322 0.429060
vt 0.999512 0.429060
f 135/166/135 111/167/111 87/168/87
vt 0.141678 0.428083
vt 0.000488 0.428083
vt 0.000488 0.286893
f 73/169/73 111/170/111 135/171/135
vt 0.001179 0.286203
vt 0.142369 0.286203
vt 0.142369 0.427393
f 87/172/87 80/173/80 135/174/135
vt 0.284535 0.428083
vt 0.143345 0.428083
vt 0.143345 0.286893
f 135/175/135 121/176/121 91/177/91
vt 0.144036 0.286203
vt 0.285226 0.286203
vt 0.285226 0.427393
f 91/178/91 117/179/117 120/180/120
vt 0.427393 0.428083
vt 0.286203 0.428083
vt 0.286203 0.286893
f 117/181/117 142/182/142 120/183/120
vt 0.286893 0.286203
vt 0.428083 0.286203
vt 0.428083 0.427393
f 142/184/142 140/185/140 120/186/120
vt 0.570250 0.428083
vt 0.429060 0.428083
vt 0.429060 0.286893
f 120/187/120 94/188/94 137/189/137
vt 0.429750 0.286203
vt 0.570940 0.286203
vt 0.570940 0.427393
f 94/190/94 124/191/124 137/192/137
vt 0.571917 0.428083
vt 0.571917 0.286893
vt 0.713107 0.428083
f 137/193/137 83/194/83 120/195/120
vt 0.713797 0.286203
vt 0.713797 0.427393
vt 0.572607 0.286203
f 135/196/135 91/197/91 129/198/129
vt 0.855964 0.428083
vt 0.714774 0.428083
vt 0.714774 0.286893
f 83/199/83 76/200/76 129/201/129
vt 0.856655 0.286203
vt 0.856655 0.427393
vt 0.715465 0.286203
f 91/202/91 120/203/120 129/204/129
vt 0.998821 0.428083
vt 0.857631 0.428083
vt 0.857631 0.286893
f 138/205/138 66/206/66 12/207/12
vt 0.858322 0.286203
vt 0.999512 0.286203
vt 0.999512 0.427393
f 82/208/82 11/209/11 17/210/17
vt 0.141678 0.285226
vt 0.000488 0.285226
vt 0.000488 0.144036
f 89/211/89 18/212/18 41/213/41
vt 0.001179 0.143345
vt 0.142369 0.143345
vt 0.142369 0.284535
f 36/214/36 40/215/40 16/216/16
vt 0.284535 0.285226
vt 0.143345 0.285226
vt 0.143345 0.144036
f 16/217/16 10/218/10 65/219/65
vt 0.144036 0.143345
vt 0.285226 0.143345
vt 0.285226 0.284535
f 65/220/65 54/221/54 24/222/24
vt 0.427393 0.285226
vt 0.286203 0.285226
vt 0.286203 0.144036
f 24/223/24 46/224/46 43/225/43
vt 0.286893 0.143345
vt 0.428083 0.143345
vt 0.428083 0.284535
f 46/226/46 68/227/68 43/228/43
vt 0.570250 0.285226
vt 0.429060 0.285226
vt 0.429060 0.144036
f 68/229/68 72/230/72 43/231/43
vt 0.429750 0.143345
vt 0.570940 0.143345
vt 0.570940 0.284535
f 43/232/43 20/233/20 63/234/63
vt 0.713107 0.285226
vt 0.571917 0.285226
vt 0.571917 0.144036
f 20/235/20 51/236/51 63/237/63
vt 0.572607 0.143345
vt 0.713797 0.143345
vt 0.713797 0.284535
f 63/238/63 7/239/7 37/240/37
vt 0.855964 0.285226
vt 0.714774 0.285226
vt 0.714774 0.144036
f 7/241/7 14/242/14 37/243/37
vt 0.715465 0.143345
vt 0.856655 0.143345
vt 0.856655 0.284535
f 37/244/37 33/245/33 3/246/3
vt 0.998821 0.285226
vt 0.857631 0.285226
vt 0.857631 0.144036
f 3/247/3 56/248/56 28/249/28
vt 0.858322 0.143345
vt 0.999512 0.143345
vt 0.999512 0.284535
f 28/250/28 25/251/25 6/252/6
vt 0.141678 0.142369
vt 0.000488 0.142369
vt 0.000488 0.001179
f 25/253/25 59/254/59 6/255/6
vt 0.001179 0.000488
vt 0.142369 0.000488
vt 0.142369 0.141678
f 6/256/6 36/257/36 65/258/65
vt 0.143345 0.142369
vt 0.143345 0.001179
vt 0.284535 0.142369
f 28/259/28 6/260/6 3/261/3
vt 0.144036 0.000488
vt 0.285226 0.000488
vt 0.285226 0.141678
f 36/262/36 16/263/16 65/264/65
vt 0.427393 0.142369
vt 0.286203 0.142369
vt 0.286203 0.001179
f 65/265/65 24/266/24 43/267/43
vt 0.428083 0.141678
vt 0.286893 0.000488
vt 0.428083 0.000488
f 3/268/3 63/269/63 37/270/37
vt 0.570250 0.142369
vt 0.429060 0.142369
vt 0.429060 0.001179
f 43/271/43 63/272/63 3/273/3
vt 0.429750 0.000488
vt 0.570940 0.000488
vt 0.570940 0.141678
f 3/274/3 6/275/6 65/276/65
# 92 faces, 276 coords texture

# End of File