####
#
# OBJ File Generated by Meshlab
#
####
# Object Untitled_001-mesh.1.obj
#
# Vertices: 48
# Faces: 72
#
####
mtllib ./Untitled_001-mesh.1.obj.mtl

vn -0.000835 0.999980 0.006285
v -47.440392 43.500000 82.793800
vn -0.001668 -0.999994 0.003142
v -47.440392 43.490002 82.793800
vn 0.003331 0.999975 0.006288
v -41.440392 43.500000 82.794983
vn 0.001666 0.999994 0.003142
v -41.440392 43.500000 85.976303
vn 0.001666 0.999920 -0.012568
v -41.440392 43.500000 84.385391
vn 0.001664 -0.999920 0.012575
v -41.440392 43.490002 82.794983
vn 0.000833 -0.999980 0.006285
v -41.440392 43.490002 85.976303
vn 0.003333 -0.999975 -0.006284
v -41.440392 43.490002 84.385391
vn -0.001666 0.999920 0.012568
v -47.441978 43.500000 92.339943
vn -0.003333 -0.999975 0.006284
v -47.441978 43.490002 92.339943
vn 0.001666 0.999994 0.003143
v -41.441978 43.500000 92.339943
vn 0.000833 -0.999980 0.006285
v -41.441978 43.490002 92.339943
vn -0.003331 0.999975 -0.006288
v -47.442780 43.500000 97.111992
vn -0.001663 -0.999920 -0.012574
v -47.442780 43.490002 97.111992
vn 0.000835 0.999980 -0.006284
v -41.442780 43.500000 97.113342
vn 0.001668 -0.999994 -0.003142
v -41.442780 43.490002 97.113342
vn -0.001666 0.999920 0.012568
v -47.441448 43.500000 89.158112
vn -0.003333 -0.999975 0.006284
v -47.441448 43.490002 89.158112
vn 0.001666 0.999920 -0.012568
v -41.442249 43.500000 93.930840
vn 0.003333 -0.999975 -0.006284
v -41.442249 43.490002 93.930840
vn -0.000836 0.999980 0.006284
v -47.443050 43.500000 98.702217
vn -0.001667 -0.999994 0.003142
v -47.443050 43.490002 98.702217
vn 0.003330 0.999975 0.006282
v -41.443050 43.500000 98.704918
vn 0.001661 -0.999920 0.012563
v -41.443050 43.490002 98.704918
vn -0.001666 0.999994 -0.003143
v -47.441719 43.500000 90.749031
vn -0.000833 -0.999980 -0.006285
v -47.441719 43.490002 90.749031
vn 0.001666 0.999920 -0.012568
v -41.441719 43.500000 90.749031
vn 0.003333 -0.999975 -0.006284
v -41.441719 43.490002 90.749031
vn -0.001666 0.999920 0.012568
v -47.442520 43.500000 95.521751
vn -0.001666 0.999994 -0.003142
v -47.442520 43.500000 93.930840
vn -0.003333 -0.999975 0.006284
v -47.442520 43.490002 95.521751
vn -0.000833 -0.999980 -0.006285
v -47.442520 43.490002 93.930840
vn 0.001666 0.999994 0.003143
v -41.442520 43.500000 95.521751
vn 0.000833 -0.999980 0.006285
v -41.442520 43.490002 95.521751
vn -0.001666 0.999994 -0.003143
v -47.441189 43.500000 87.567207
vn -0.000833 -0.999980 -0.006285
v -47.441189 43.490002 87.567207
vn 0.001666 0.999994 0.003142
v -41.441189 43.500000 89.158112
vn 0.001666 0.999920 -0.012568
v -41.441189 43.500000 87.567207
vn 0.000833 -0.999980 0.006285
v -41.441189 43.490002 89.158112
vn 0.003333 -0.999975 -0.006285
v -41.441189 43.490002 87.567207
vn -0.001666 0.999994 -0.003143
v -47.440651 43.500000 84.385391
vn -0.000833 -0.999980 -0.006285
v -47.440651 43.490002 84.385391
vn -0.003330 0.999975 -0.006282
v -47.440121 43.500000 81.202217
vn -0.001661 -0.999920 -0.012563
v -47.440121 43.490002 81.202217
vn 0.000836 0.999980 -0.006285
v -41.440121 43.500000 81.204918
vn 0.001667 -0.999994 -0.003142
v -41.440121 43.490002 81.204918
vn -0.001666 0.999920 0.012568
v -47.440922 43.500000 85.976303
vn -0.003332 -0.999975 0.006284
v -47.440922 43.490002 85.976303
# 48 vertices, 0 vertices normals


usemtl material_0
vt 0.000488 0.834512
vt 0.165488 0.999512
vt 0.000488 0.999512
f 35/1/35 37/2/37 38/3/38
vt 0.166178 0.998821
vt 0.001179 0.833822
vt 0.166178 0.833822
f 45/4/45 1/5/1 3/6/3
vt 0.167155 0.834512
vt 0.332155 0.999512
vt 0.167155 0.999512
f 30/7/30 33/8/33 19/9/19
vt 0.332845 0.998821
vt 0.167845 0.833822
vt 0.332845 0.833822
f 21/10/21 15/11/15 13/12/13
vt 0.333822 0.834512
vt 0.498821 0.999512
vt 0.333822 0.999512
f 25/13/25 11/14/11 27/15/27
vt 0.499512 0.998821
vt 0.334512 0.833822
vt 0.499512 0.833822
f 41/16/41 4/17/4 5/18/5
vt 0.500488 0.834512
vt 0.665488 0.999512
vt 0.500488 0.999512
f 36/19/36 39/20/39 18/21/18
vt 0.666178 0.998821
vt 0.501179 0.833822
vt 0.666178 0.833822
f 46/22/46 2/23/2 44/24/44
vt 0.667155 0.834512
vt 0.832155 0.999512
vt 0.667155 0.999512
f 32/25/32 34/26/34 31/27/31
vt 0.832845 0.998821
vt 0.667845 0.833822
vt 0.832845 0.833822
f 16/28/16 22/29/22 14/30/14
vt 0.833822 0.834512
vt 0.998821 0.999512
vt 0.833822 0.999512
f 26/31/26 12/32/12 10/33/10
vt 0.999512 0.998821
vt 0.834512 0.833822
vt 0.999512 0.833822
f 42/34/42 7/35/7 48/36/48
vt 0.000488 0.667845
vt 0.165488 0.832845
vt 0.000488 0.832845
f 35/37/35 18/38/18 17/39/17
vt 0.166178 0.832155
vt 0.001179 0.667155
vt 0.166178 0.667155
f 17/40/17 39/41/39 37/42/37
vt 0.167155 0.667845
vt 0.332155 0.832845
vt 0.167155 0.832845
f 37/43/37 40/44/40 38/45/38
vt 0.332845 0.832155
vt 0.167845 0.667155
vt 0.332845 0.667155
f 38/46/38 36/47/36 35/48/35
vt 0.333822 0.667845
vt 0.498821 0.832845
vt 0.333822 0.832845
f 45/49/45 44/50/44 43/51/43
vt 0.499512 0.832155
vt 0.334512 0.667155
vt 0.499512 0.667155
f 43/52/43 2/53/2 1/54/1
vt 0.500488 0.667845
vt 0.665488 0.832845
vt 0.500488 0.832845
f 1/55/1 6/56/6 3/57/3
vt 0.666178 0.832155
vt 0.501179 0.667155
vt 0.666178 0.667155
f 3/58/3 46/59/46 45/60/45
vt 0.667155 0.667845
vt 0.832155 0.832845
vt 0.667155 0.832845
f 30/61/30 31/62/31 29/63/29
vt 0.832845 0.832155
vt 0.667845 0.667155
vt 0.832845 0.667155
f 29/64/29 34/65/34 33/66/33
vt 0.833822 0.667845
vt 0.998821 0.832845
vt 0.833822 0.832845
f 33/67/33 20/68/20 19/69/19
vt 0.999512 0.832155
vt 0.834512 0.667155
vt 0.999512 0.667155
f 19/70/19 32/71/32 30/72/30
vt 0.000488 0.501179
vt 0.165488 0.666178
vt 0.000488 0.666178
f 13/73/13 22/74/22 21/75/21
vt 0.166178 0.665488
vt 0.001179 0.500488
vt 0.166178 0.500488
f 21/76/21 24/77/24 23/78/23
vt 0.167155 0.501179
vt 0.332155 0.666178
vt 0.167155 0.666178
f 23/79/23 16/80/16 15/81/15
vt 0.332845 0.665488
vt 0.167845 0.500488
vt 0.332845 0.500488
f 15/82/15 14/83/14 13/84/13
vt 0.333822 0.501179
vt 0.498821 0.666178
vt 0.333822 0.666178
f 25/85/25 10/86/10 9/87/9
vt 0.499512 0.665488
vt 0.334512 0.500488
vt 0.499512 0.500488
f 9/88/9 12/89/12 11/90/11
vt 0.500488 0.501179
vt 0.665488 0.666178
vt 0.500488 0.666178
f 11/91/11 28/92/28 27/93/27
vt 0.666178 0.665488
vt 0.501179 0.500488
vt 0.666178 0.500488
f 27/94/27 26/95/26 25/96/25
vt 0.667155 0.501179
vt 0.832155 0.666178
vt 0.667155 0.666178
f 41/97/41 48/98/48 47/99/47
vt 0.832845 0.665488
vt 0.667845 0.500488
vt 0.832845 0.500488
f 47/100/47 7/101/7 4/102/4
vt 0.833822 0.501179
vt 0.998821 0.666178
vt 0.833822 0.666178
f 4/103/4 8/104/8 5/105/5
vt 0.999512 0.665488
vt 0.834512 0.500488
vt 0.999512 0.500488
f 5/106/5 42/107/42 41/108/41
vt 0.165488 0.499512
vt 0.000488 0.499512
vt 0.000488 0.334512
f 35/109/35 17/110/17 37/111/37
vt 0.001179 0.333822
vt 0.166178 0.333822
vt 0.166178 0.498821
f 45/112/45 43/113/43 1/114/1
vt 0.332155 0.499512
vt 0.167155 0.499512
vt 0.167155 0.334512
f 30/115/30 29/116/29 33/117/33
vt 0.167845 0.333822
vt 0.332845 0.333822
vt 0.332845 0.498821
f 21/118/21 23/119/23 15/120/15
vt 0.498821 0.499512
vt 0.333822 0.499512
vt 0.333822 0.334512
f 25/121/25 9/122/9 11/123/11
vt 0.334512 0.333822
vt 0.499512 0.333822
vt 0.499512 0.498821
f 41/124/41 47/125/47 4/126/4
vt 0.665488 0.499512
vt 0.500488 0.499512
vt 0.500488 0.334512
f 36/127/36 40/128/40 39/129/39
vt 0.501179 0.333822
vt 0.666178 0.333822
vt 0.666178 0.498821
f 46/130/46 6/131/6 2/132/2
vt 0.832155 0.499512
vt 0.667155 0.499512
vt 0.667155 0.334512
f 32/133/32 20/134/20 34/135/34
vt 0.667845 0.333822
vt 0.832845 0.333822
vt 0.832845 0.498821
f 16/136/16 24/137/24 22/138/22
vt 0.998821 0.499512
vt 0.833822 0.499512
vt 0.833822 0.334512
f 26/139/26 28/140/28 12/141/12
vt 0.834512 0.333822
vt 0.999512 0.333822
vt 0.999512 0.498821
f 42/142/42 8/143/8 7/144/7
vt 0.165488 0.332845
vt 0.000488 0.332845
vt 0.000488 0.167845
f 35/145/35 36/146/36 18/147/18
vt 0.001179 0.167155
vt 0.166178 0.167155
vt 0.166178 0.332155
f 17/148/17 18/149/18 39/150/39
vt 0.332155 0.332845
vt 0.167155 0.332845
vt 0.167155 0.167845
f 37/151/37 39/152/39 40/153/40
vt 0.167845 0.167155
vt 0.332845 0.167155
vt 0.332845 0.332155
f 38/154/38 40/155/40 36/156/36
vt 0.498821 0.332845
vt 0.333822 0.332845
vt 0.333822 0.167845
f 45/157/45 46/158/46 44/159/44
vt 0.334512 0.167155
vt 0.499512 0.167155
vt 0.499512 0.332155
f 43/160/43 44/161/44 2/162/2
vt 0.665488 0.332845
vt 0.500488 0.332845
vt 0.500488 0.167845
f 1/163/1 2/164/2 6/165/6
vt 0.501179 0.167155
vt 0.666178 0.167155
vt 0.666178 0.332155
f 3/166/3 6/167/6 46/168/46
vt 0.832155 0.332845
vt 0.667155 0.332845
vt 0.667155 0.167845
f 30/169/30 32/170/32 31/171/31
vt 0.667845 0.167155
vt 0.832845 0.167155
vt 0.832845 0.332155
f 29/172/29 31/173/31 34/174/34
vt 0.998821 0.332845
vt 0.833822 0.332845
vt 0.833822 0.167845
f 33/175/33 34/176/34 20/177/20
vt 0.834512 0.167155
vt 0.999512 0.167155
vt 0.999512 0.332155
f 19/178/19 20/179/20 32/180/32
vt 0.165488 0.166178
vt 0.000488 0.166178
vt 0.000488 0.001179
f 13/181/13 14/182/14 22/183/22
vt 0.001179 0.000488
vt 0.166178 0.000488
vt 0.166178 0.165488
f 21/184/21 22/185/22 24/186/24
vt 0.332155 0.166178
vt 0.167155 0.166178
vt 0.167155 0.001179
f 23/187/23 24/188/24 16/189/16
vt 0.167845 0.000488
vt 0.332845 0.000488
vt 0.332845 0.165488
f 15/190/15 16/191/16 14/192/14
vt 0.498821 0.166178
vt 0.333822 0.166178
vt 0.333822 0.001179
f 25/193/25 26/194/26 10/195/10
vt 0.334512 0.000488
vt 0.499512 0.000488
vt 0.499512 0.165488
f 9/196/9 10/197/10 12/198/12
vt 0.665488 0.166178
vt 0.500488 0.166178
vt 0.500488 0.001179
f 11/199/11 12/200/12 28/201/28
vt 0.501179 0.000488
vt 0.666178 0.000488
vt 0.666178 0.165488
f 27/202/27 28/203/28 26/204/26
vt 0.832155 0.166178
vt 0.667155 0.166178
vt 0.667155 0.001179
f 41/205/41 42/206/42 48/207/48
vt 0.667845 0.000488
vt 0.832845 0.000488
vt 0.832845 0.165488
f 47/208/47 48/209/48 7/210/7
vt 0.998821 0.166178
vt 0.833822 0.166178
vt 0.833822 0.001179
f 4/211/4 7/212/7 8/213/8
vt 0.834512 0.000488
vt 0.999512 0.000488
vt 0.999512 0.165488
f 5/214/5 8/215/8 42/216/42
# 72 faces, 216 coords texture

# End of File