####
#
# OBJ File Generated by Meshlab
#
####
# Object Untitled_022-mesh.1.obj
#
# Vertices: 44
# Faces: 24
#
####
mtllib ./Untitled_022-mesh.1.obj.mtl

vn -0.007875 0.999969 -0.000476
v -48.658772 170.899200 -197.701096
vn -0.999988 -0.004835 0.001067
v -48.658772 170.899200 -197.701096
vn -0.013755 0.999899 0.003631
v -48.658451 170.898102 -200.014206
vn -0.999996 0.000000 0.002761
v -48.658451 170.898102 -200.014206
vn -0.006106 -0.999980 -0.001395
v -48.658451 170.322403 -200.014206
vn -0.999987 -0.004731 0.001787
v -48.658451 170.322403 -200.014206
vn 0.000000 0.000000 -1.000000
v -45.522018 170.310303 -200.117798
vn 0.000000 -1.000000 0.000000
v -45.522018 170.310303 -200.117798
vn 1.000000 0.000000 0.000000
v -45.522018 170.310303 -200.117798
vn 0.000000 -1.000000 0.000000
v -45.522018 170.310303 -197.488205
vn 0.000000 0.000000 1.000000
v -45.522018 170.310303 -197.488205
vn 1.000000 0.000000 0.000000
v -45.522018 170.310303 -197.488205
vn 0.000000 0.000000 -1.000000
v -45.522018 170.910294 -200.117798
vn 0.000000 1.000000 0.000000
v -45.522018 170.910294 -200.117798
vn 1.000000 0.000000 0.000000
v -45.522018 170.910294 -200.117798
vn 0.000000 0.000000 1.000000
v -45.522018 170.910294 -197.488205
vn 0.000000 1.000000 0.000000
v -45.522018 170.910294 -197.488205
vn 1.000000 0.000000 0.000000
v -45.522018 170.910294 -197.488205
vn 0.000000 0.000000 -1.000000
v -46.122021 170.310303 -200.117798
vn 0.000000 -1.000000 0.000000
v -46.122021 170.310303 -200.117798
vn -1.000000 0.000000 0.000000
v -46.122021 170.310303 -200.117798
vn 0.000000 -1.000000 0.000000
v -46.122021 170.310303 -197.488205
vn -1.000000 0.000000 0.000000
v -46.122021 170.310303 -197.488205
vn 0.000000 0.000000 1.000000
v -46.122021 170.310303 -197.488205
vn -1.000000 0.000000 0.000000
v -46.122021 170.910294 -200.117798
vn 0.000000 0.000000 -1.000000
v -46.122021 170.910294 -200.117798
vn 0.000000 1.000000 0.000000
v -46.122021 170.910294 -200.117798
vn -1.000000 0.000000 0.000000
v -46.122021 170.910294 -197.488205
vn 0.000000 0.000000 1.000000
v -46.122021 170.910294 -197.488205
vn 0.000000 1.000000 0.000000
v -46.122021 170.910294 -197.488205
vn -0.006241 -0.999973 -0.004007
v -48.060268 170.309402 -197.701294
vn -0.014058 0.999901 0.001118
v -48.062012 170.903900 -197.701096
vn 0.000000 0.000000 -1.000000
v -48.062019 170.310303 -200.117798
vn -0.019505 -0.999800 0.004485
v -48.062019 170.310303 -200.117798
vn 0.000000 0.000000 -1.000000
v -48.062019 170.910294 -200.117798
vn -0.019152 0.999789 0.007400
v -48.062019 170.910294 -200.117798
vn 0.008586 -0.999932 -0.007841
v -48.653111 170.304306 -197.700500
vn -0.999952 -0.009513 0.002234
v -48.653111 170.304306 -197.700500
vn 0.000000 0.000000 -1.000000
v -48.662022 170.310303 -200.117798
vn 0.000000 -0.993247 0.116018
v -48.662022 170.310303 -200.117798
vn -0.999407 0.000000 0.034447
v -48.662022 170.310303 -200.117798
vn 0.000000 0.993146 0.116884
v -48.662022 170.910294 -200.117798
vn 0.000000 0.000000 -1.000000
v -48.662022 170.910294 -200.117798
vn -0.999407 0.000000 0.034447
v -48.662022 170.910294 -200.117798
# 44 vertices, 0 vertices normals


usemtl material_0
vt 0.000488 0.751179
vt 0.248821 0.999512
vt 0.000488 0.999512
f 12/1/12 15/2/15 18/3/18
vt 0.001179 0.750488
vt 0.249512 0.750488
vt 0.249512 0.998821
f 36/4/36 42/5/42 3/6/3
vt 0.250488 0.751179
vt 0.498821 0.999512
vt 0.250488 0.999512
f 30/7/30 14/8/14 27/9/27
vt 0.499512 0.998821
vt 0.251179 0.750488
vt 0.499512 0.750488
f 23/10/23 25/11/25 21/12/21
vt 0.500488 0.751179
vt 0.748821 0.999512
vt 0.500488 0.999512
f 8/13/8 22/14/22 20/15/20
vt 0.749512 0.998821
vt 0.501179 0.750488
vt 0.749512 0.750488
f 39/16/39 35/17/35 33/18/33
vt 0.750488 0.751179
vt 0.998821 0.999512
vt 0.750488 0.999512
f 19/19/19 13/20/13 7/21/7
vt 0.999512 0.998821
vt 0.751179 0.750488
vt 0.999512 0.750488
f 29/22/29 11/23/11 16/24/16
vt 0.248821 0.749512
vt 0.000488 0.749512
vt 0.000488 0.501179
f 31/25/31 37/26/37 5/27/5
vt 0.249512 0.500488
vt 0.249512 0.748821
vt 0.001179 0.500488
f 6/28/6 4/29/4 41/30/41
vt 0.498821 0.749512
vt 0.250488 0.749512
vt 0.250488 0.501179
f 12/31/12 9/32/9 15/33/15
vt 0.251179 0.500488
vt 0.499512 0.500488
vt 0.499512 0.748821
f 3/34/3 1/35/1 32/36/32
vt 0.500488 0.501179
vt 0.748821 0.749512
vt 0.500488 0.749512
f 32/37/32 36/38/36 3/39/3
vt 0.501179 0.500488
vt 0.749512 0.500488
vt 0.749512 0.748821
f 30/40/30 17/41/17 14/42/14
vt 0.998821 0.749512
vt 0.750488 0.749512
vt 0.750488 0.501179
f 23/43/23 28/44/28 25/45/25
vt 0.751179 0.500488
vt 0.999512 0.500488
vt 0.999512 0.748821
f 8/46/8 10/47/10 22/48/22
vt 0.248821 0.499512
vt 0.000488 0.499512
vt 0.000488 0.251179
f 39/49/39 43/50/43 35/51/35
vt 0.001179 0.250488
vt 0.249512 0.250488
vt 0.249512 0.498821
f 19/52/19 26/53/26 13/54/13
vt 0.498821 0.499512
vt 0.250488 0.499512
vt 0.250488 0.251179
f 29/55/29 24/56/24 11/57/11
vt 0.499512 0.250488
vt 0.499512 0.498821
vt 0.251179 0.250488
f 40/58/40 34/59/34 5/60/5
vt 0.500488 0.251179
vt 0.748821 0.499512
vt 0.500488 0.499512
f 34/61/34 31/62/31 5/63/5
vt 0.501179 0.250488
vt 0.749512 0.250488
vt 0.749512 0.498821
f 6/64/6 38/65/38 2/66/2
vt 0.750488 0.499512
vt 0.750488 0.251179
vt 0.998821 0.499512
f 4/67/4 44/68/44 41/69/41
vt 0.999512 0.498821
vt 0.751179 0.250488
vt 0.999512 0.250488
f 6/70/6 2/71/2 4/72/4
# 24 faces, 72 coords texture

# End of File