####
#
# OBJ File Generated by Meshlab
#
####
# Object Untitled_019-mesh.1.obj
#
# Vertices: 120
# Faces: 70
#
####
mtllib ./Untitled_019-mesh.1.obj.mtl

vn 0.382788 0.923836 0.000000
v -20.298340 158.159302 -135.026794
vn 0.608803 0.793321 0.000000
v -20.298340 158.159302 -135.026794
vn 0.000000 0.000000 1.000000
v -20.298340 158.159302 -135.026794
vn 0.382788 0.923836 0.000000
v -20.298340 158.159302 -137.026794
vn 0.608803 0.793321 0.000000
v -20.298340 158.159302 -137.026794
vn 0.608803 -0.793321 0.000000
v -20.298340 155.561203 -135.026794
vn 0.000000 0.000000 1.000000
v -20.298340 155.561203 -135.026794
vn 0.382555 -0.923933 0.000000
v -20.298340 155.561203 -135.026794
vn 0.608803 -0.793321 0.000000
v -20.298340 155.561203 -137.026794
vn 0.382555 -0.923933 0.000000
v -20.298340 155.561203 -137.026794
vn -0.382564 -0.923929 0.000000
v -21.436569 155.411407 -135.026794
vn 0.000000 0.000000 1.000000
v -21.436569 155.411407 -135.026794
vn -0.130502 -0.991448 0.000000
v -21.436569 155.411407 -135.026794
vn -0.382564 -0.923929 0.000000
v -21.436569 155.411407 -137.026794
vn -0.130502 -0.991448 0.000000
v -21.436569 155.411407 -137.026794
vn -0.382797 0.923833 0.000000
v -21.436569 158.309204 -135.026794
vn 0.000000 0.000000 1.000000
v -21.436569 158.309204 -135.026794
vn -0.130502 0.991448 0.000000
v -21.436569 158.309204 -135.026794
vn -0.382797 0.923833 0.000000
v -21.436569 158.309204 -137.026794
vn -0.130502 0.991448 0.000000
v -21.436569 158.309204 -137.026794
vn 0.000000 0.000000 1.000000
v -21.048340 155.360306 -135.026794
vn 0.130505 -0.991448 0.000000
v -21.048340 155.360306 -135.026794
vn -0.130502 -0.991448 0.000000
v -21.048340 155.360306 -135.026794
vn 0.130505 -0.991448 0.000000
v -21.048340 155.360306 -137.026794
vn -0.130502 -0.991448 0.000000
v -21.048340 155.360306 -137.026794
vn 0.000000 0.000000 1.000000
v -21.048340 158.360306 -135.026794
vn 0.130505 0.991448 0.000000
v -21.048340 158.360306 -135.026794
vn -0.130502 0.991448 0.000000
v -21.048340 158.360306 -135.026794
vn 0.130505 0.991448 0.000000
v -21.048340 158.360306 -137.026794
vn -0.130502 0.991448 0.000000
v -21.048340 158.360306 -137.026794
vn -0.923851 -0.382754 0.000000
v -22.497231 156.472000 -135.026794
vn 0.000000 0.000000 1.000000
v -22.497231 156.472000 -135.026794
vn -0.991449 -0.130496 0.000000
v -22.497231 156.472000 -135.026794
vn -0.923851 -0.382754 0.000000
v -22.497231 156.472000 -137.026794
vn -0.991449 -0.130496 0.000000
v -22.497231 156.472000 -137.026794
vn -0.991444 0.130531 0.000000
v -22.497231 157.248505 -135.026794
vn 0.000000 0.000000 1.000000
v -22.497231 157.248505 -135.026794
vn -0.923890 0.382657 0.000000
v -22.497231 157.248505 -135.026794
vn -0.991444 0.130531 0.000000
v -22.497231 157.248505 -137.026794
vn -0.923890 0.382657 0.000000
v -22.497231 157.248505 -137.026794
vn 0.608803 -0.793321 0.000000
v -19.987680 155.799606 -135.026794
vn 0.000000 0.000000 1.000000
v -19.987680 155.799606 -135.026794
vn 0.793399 -0.608702 0.000000
v -19.987680 155.799606 -135.026794
vn 0.608803 -0.793321 0.000000
v -19.987680 155.799606 -137.026794
vn 0.793399 -0.608702 0.000000
v -19.987680 155.799606 -137.026794
vn 0.608803 0.793321 0.000000
v -19.987680 157.920898 -135.026794
vn 0.000000 0.000000 1.000000
v -19.987680 157.920898 -135.026794
vn 0.793298 0.608833 0.000000
v -19.987680 157.920898 -135.026794
vn 0.608803 0.793321 0.000000
v -19.987680 157.920898 -137.026794
vn 0.793298 0.608833 0.000000
v -19.987680 157.920898 -137.026794
vn 0.000000 0.000000 1.000000
v -21.798340 158.159302 -135.026794
vn -0.382797 0.923833 0.000000
v -21.798340 158.159302 -135.026794
vn -0.608789 0.793332 0.000000
v -21.798340 158.159302 -135.026794
vn -0.382797 0.923833 0.000000
v -21.798340 158.159302 -137.026794
vn -0.608789 0.793332 0.000000
v -21.798340 158.159302 -137.026794
vn 0.000000 0.000000 1.000000
v -21.798340 155.561203 -135.026794
vn -0.382564 -0.923929 0.000000
v -21.798340 155.561203 -135.026794
vn -0.608789 -0.793332 0.000000
v -21.798340 155.561203 -135.026794
vn -0.382564 -0.923929 0.000000
v -21.798340 155.561203 -137.026794
vn -0.608789 -0.793332 0.000000
v -21.798340 155.561203 -137.026794
vn 0.000000 0.000000 1.000000
v -20.660120 155.411407 -135.026794
vn 0.382555 -0.923933 0.000000
v -20.660120 155.411407 -135.026794
vn 0.130505 -0.991448 0.000000
v -20.660120 155.411407 -135.026794
vn 0.382555 -0.923933 0.000000
v -20.660120 155.411407 -137.026794
vn 0.130505 -0.991448 0.000000
v -20.660120 155.411407 -137.026794
vn 0.000000 0.000000 1.000000
v -20.660120 158.309204 -135.026794
vn 0.130505 0.991448 0.000000
v -20.660120 158.309204 -135.026794
vn 0.382788 0.923836 0.000000
v -20.660120 158.309204 -135.026794
vn 0.130505 0.991448 0.000000
v -20.660120 158.309204 -137.026794
vn 0.382788 0.923836 0.000000
v -20.660120 158.309204 -137.026794
vn -0.608789 -0.793332 0.000000
v -22.109011 155.799606 -135.026794
vn 0.000000 0.000000 1.000000
v -22.109011 155.799606 -135.026794
vn -0.793402 -0.608699 0.000000
v -22.109011 155.799606 -135.026794
vn -0.608789 -0.793332 0.000000
v -22.109011 155.799606 -137.026794
vn -0.793402 -0.608699 0.000000
v -22.109011 155.799606 -137.026794
vn -0.608789 0.793332 0.000000
v -22.109011 157.920898 -135.026794
vn -0.793301 0.608830 0.000000
v -22.109011 157.920898 -135.026794
vn 0.000000 0.000000 1.000000
v -22.109011 157.920898 -135.026794
vn -0.608789 0.793332 0.000000
v -22.109011 157.920898 -137.026794
vn -0.793301 0.608830 0.000000
v -22.109011 157.920898 -137.026794
vn 0.991445 -0.130525 0.000000
v -19.599461 156.472000 -135.026794
vn 0.923852 -0.382749 0.000000
v -19.599461 156.472000 -135.026794
vn 0.000000 0.000000 1.000000
v -19.599461 156.472000 -135.026794
vn 0.991445 -0.130525 0.000000
v -19.599461 156.472000 -137.026794
vn 0.923852 -0.382749 0.000000
v -19.599461 156.472000 -137.026794
vn 0.991440 0.130560 0.000000
v -19.599461 157.248505 -135.026794
vn 0.923892 0.382653 0.000000
v -19.599461 157.248505 -135.026794
vn 0.000000 0.000000 1.000000
v -19.599461 157.248505 -135.026794
vn 0.991440 0.130560 0.000000
v -19.599461 157.248505 -137.026794
vn 0.923892 0.382653 0.000000
v -19.599461 157.248505 -137.026794
vn 0.000000 0.000000 1.000000
v -19.548340 156.860306 -135.026794
vn 0.991440 0.130560 0.000000
v -19.548340 156.860306 -135.026794
vn 0.991445 -0.130525 0.000000
v -19.548340 156.860306 -135.026794
vn 0.991440 0.130560 0.000000
v -19.548340 156.860306 -137.026794
vn 0.991445 -0.130525 0.000000
v -19.548340 156.860306 -137.026794
vn 0.000000 0.000000 1.000000
v -22.548340 156.860306 -135.026794
vn -0.991444 0.130531 0.000000
v -22.548340 156.860306 -135.026794
vn -0.991449 -0.130496 0.000000
v -22.548340 156.860306 -135.026794
vn -0.991444 0.130531 0.000000
v -22.548340 156.860306 -137.026794
vn -0.991449 -0.130496 0.000000
v -22.548340 156.860306 -137.026794
vn 0.000000 0.000000 1.000000
v -22.347380 156.110306 -135.026794
vn -0.793402 -0.608699 0.000000
v -22.347380 156.110306 -135.026794
vn -0.923851 -0.382754 0.000000
v -22.347380 156.110306 -135.026794
vn -0.793402 -0.608699 0.000000
v -22.347380 156.110306 -137.026794
vn -0.923851 -0.382754 0.000000
v -22.347380 156.110306 -137.026794
vn 0.000000 0.000000 1.000000
v -22.347380 157.610306 -135.026794
vn -0.793301 0.608830 0.000000
v -22.347380 157.610306 -135.026794
vn -0.923890 0.382657 0.000000
v -22.347380 157.610306 -135.026794
vn -0.793301 0.608830 0.000000
v -22.347380 157.610306 -137.026794
vn -0.923890 0.382657 0.000000
v -22.347380 157.610306 -137.026794
vn 0.000000 0.000000 1.000000
v -19.749310 156.110306 -135.026794
vn 0.923852 -0.382749 0.000000
v -19.749310 156.110306 -135.026794
vn 0.793399 -0.608702 0.000000
v -19.749310 156.110306 -135.026794
vn 0.923852 -0.382749 0.000000
v -19.749310 156.110306 -137.026794
vn 0.793399 -0.608702 0.000000
v -19.749310 156.110306 -137.026794
vn 0.000000 0.000000 1.000000
v -19.749310 157.610306 -135.026794
vn 0.793298 0.608833 0.000000
v -19.749310 157.610306 -135.026794
vn 0.923892 0.382653 0.000000
v -19.749310 157.610306 -135.026794
vn 0.793298 0.608833 0.000000
v -19.749310 157.610306 -137.026794
vn 0.923892 0.382653 0.000000
v -19.749310 157.610306 -137.026794
# 120 vertices, 0 vertices normals


usemtl material_0
vt 0.000488 0.834512
vt 0.165488 0.999512
vt 0.000488 0.999512
f 39/1/39 97/2/97 36/3/36
vt 0.166178 0.998821
vt 0.001179 0.833822
vt 0.166178 0.833822
f 110/4/110 38/5/38 108/6/108
vt 0.167155 0.834512
vt 0.332155 0.999512
vt 0.167155 0.999512
f 80/7/80 107/8/107 77/9/77
vt 0.332845 0.998821
vt 0.167845 0.833822
vt 0.332845 0.833822
f 55/10/55 76/11/76 53/12/53
vt 0.333822 0.834512
vt 0.498821 0.999512
vt 0.333822 0.999512
f 19/13/19 52/14/52 16/15/16
vt 0.499512 0.998821
vt 0.334512 0.833822
vt 0.499512 0.833822
f 30/16/30 18/17/18 28/18/28
vt 0.500488 0.834512
vt 0.665488 0.999512
vt 0.500488 0.999512
f 69/19/69 27/20/27 67/21/67
vt 0.666178 0.998821
vt 0.501179 0.833822
vt 0.666178 0.833822
f 4/22/4 68/23/68 1/24/1
vt 0.667155 0.834512
vt 0.832155 0.999512
vt 0.667155 0.999512
f 49/25/49 2/26/2 46/27/46
vt 0.832845 0.998821
vt 0.667845 0.833822
vt 0.832845 0.833822
f 119/28/119 48/29/48 117/30/117
vt 0.833822 0.834512
vt 0.998821 0.999512
vt 0.833822 0.999512
f 90/31/90 118/32/118 87/33/87
vt 0.999512 0.998821
vt 0.834512 0.833822
vt 0.999512 0.833822
f 94/34/94 86/35/86 92/36/92
vt 0.000488 0.667845
vt 0.165488 0.832845
vt 0.000488 0.832845
f 84/37/84 93/38/93 81/39/81
vt 0.166178 0.832155
vt 0.001179 0.667155
vt 0.166178 0.667155
f 114/40/114 82/41/82 112/42/112
vt 0.167155 0.667845
vt 0.332155 0.832845
vt 0.167155 0.832845
f 45/43/45 113/44/113 43/45/43
vt 0.332845 0.832155
vt 0.167845 0.667155
vt 0.332845 0.667155
f 9/46/9 41/47/41 6/48/6
vt 0.333822 0.667845
vt 0.498821 0.832845
vt 0.333822 0.832845
f 64/49/64 8/50/8 62/51/62
vt 0.499512 0.832155
vt 0.334512 0.667155
vt 0.499512 0.667155
f 24/52/24 63/53/63 22/54/22
vt 0.500488 0.667845
vt 0.665488 0.832845
vt 0.500488 0.832845
f 15/55/15 23/56/23 13/57/13
vt 0.666178 0.832155
vt 0.501179 0.667155
vt 0.666178 0.667155
f 59/58/59 11/59/11 57/60/57
vt 0.667155 0.667845
vt 0.832155 0.832845
vt 0.667155 0.832845
f 74/61/74 58/62/58 71/63/71
vt 0.832845 0.832155
vt 0.667845 0.667155
vt 0.832845 0.667155
f 104/64/104 73/65/73 102/66/102
vt 0.833822 0.667845
vt 0.998821 0.832845
vt 0.833822 0.832845
f 34/67/34 103/68/103 31/69/31
vt 0.999512 0.832155
vt 0.834512 0.667155
vt 0.999512 0.667155
f 100/70/100 33/71/33 98/72/98
vt 0.165488 0.666178
vt 0.000488 0.666178
vt 0.000488 0.501179
f 3/73/3 51/74/51 21/75/21
vt 0.001179 0.500488
vt 0.166178 0.500488
vt 0.166178 0.665488
f 39/76/39 99/77/99 97/78/97
vt 0.332155 0.666178
vt 0.167155 0.666178
vt 0.167155 0.501179
f 110/79/110 40/80/40 38/81/38
vt 0.167845 0.500488
vt 0.332845 0.500488
vt 0.332845 0.665488
f 80/82/80 109/83/109 107/84/107
vt 0.498821 0.666178
vt 0.333822 0.666178
vt 0.333822 0.501179
f 55/85/55 79/86/79 76/87/76
vt 0.334512 0.500488
vt 0.499512 0.500488
vt 0.499512 0.665488
f 19/88/19 54/89/54 52/90/52
vt 0.665488 0.666178
vt 0.500488 0.666178
vt 0.500488 0.501179
f 30/91/30 20/92/20 18/93/18
vt 0.501179 0.500488
vt 0.666178 0.500488
vt 0.666178 0.665488
f 69/94/69 29/95/29 27/96/27
vt 0.832155 0.666178
vt 0.667155 0.666178
vt 0.667155 0.501179
f 4/97/4 70/98/70 68/99/68
vt 0.667845 0.500488
vt 0.832845 0.500488
vt 0.832845 0.665488
f 49/100/49 5/101/5 2/102/2
vt 0.998821 0.666178
vt 0.833822 0.666178
vt 0.833822 0.501179
f 119/103/119 50/104/50 48/105/48
vt 0.834512 0.500488
vt 0.999512 0.500488
vt 0.999512 0.665488
f 90/106/90 120/107/120 118/108/118
vt 0.165488 0.499512
vt 0.000488 0.499512
vt 0.000488 0.334512
f 94/109/94 89/110/89 86/111/86
vt 0.001179 0.333822
vt 0.166178 0.333822
vt 0.166178 0.498821
f 84/112/84 95/113/95 93/114/93
vt 0.332155 0.499512
vt 0.167155 0.499512
vt 0.167155 0.334512
f 114/115/114 85/116/85 82/117/82
vt 0.167845 0.333822
vt 0.332845 0.333822
vt 0.332845 0.498821
f 45/118/45 115/119/115 113/120/113
vt 0.498821 0.499512
vt 0.333822 0.499512
vt 0.333822 0.334512
f 9/121/9 44/122/44 41/123/41
vt 0.334512 0.333822
vt 0.499512 0.333822
vt 0.499512 0.498821
f 64/124/64 10/125/10 8/126/8
vt 0.665488 0.499512
vt 0.500488 0.499512
vt 0.500488 0.334512
f 24/127/24 65/128/65 63/129/63
vt 0.501179 0.333822
vt 0.666178 0.333822
vt 0.666178 0.498821
f 15/130/15 25/131/25 23/132/23
vt 0.832155 0.499512
vt 0.667155 0.499512
vt 0.667155 0.334512
f 59/133/59 14/134/14 11/135/11
vt 0.667845 0.333822
vt 0.832845 0.333822
vt 0.832845 0.498821
f 74/136/74 60/137/60 58/138/58
vt 0.998821 0.499512
vt 0.833822 0.499512
vt 0.833822 0.334512
f 104/139/104 75/140/75 73/141/73
vt 0.834512 0.333822
vt 0.999512 0.333822
vt 0.999512 0.498821
f 34/142/34 105/143/105 103/144/103
vt 0.165488 0.332845
vt 0.000488 0.332845
vt 0.000488 0.167845
f 100/145/100 35/146/35 33/147/33
vt 0.001179 0.167155
vt 0.166178 0.167155
vt 0.166178 0.332155
f 37/148/37 96/149/96 32/150/32
vt 0.332155 0.332845
vt 0.167155 0.332845
vt 0.167155 0.167845
f 32/151/32 101/152/101 21/153/21
vt 0.167845 0.167155
vt 0.332845 0.167155
vt 0.332845 0.332155
f 101/154/101 72/155/72 56/156/56
vt 0.333822 0.167845
vt 0.498821 0.332845
vt 0.333822 0.332845
f 21/157/21 101/158/101 56/159/56
vt 0.334512 0.167155
vt 0.499512 0.167155
vt 0.499512 0.332155
f 56/160/56 12/161/12 21/162/21
vt 0.665488 0.332845
vt 0.500488 0.332845
vt 0.500488 0.167845
f 21/163/21 61/164/61 7/165/7
vt 0.501179 0.167155
vt 0.666178 0.167155
vt 0.666178 0.332155
f 7/166/7 42/167/42 111/168/111
vt 0.667155 0.167845
vt 0.832155 0.332845
vt 0.667155 0.332845
f 83/169/83 7/170/7 111/171/111
vt 0.667845 0.167155
vt 0.832845 0.167155
vt 0.832845 0.332155
f 83/172/83 91/173/91 47/174/47
vt 0.998821 0.332845
vt 0.833822 0.332845
vt 0.833822 0.167845
f 91/175/91 88/176/88 47/177/47
vt 0.834512 0.167155
vt 0.999512 0.167155
vt 0.999512 0.332155
f 88/178/88 116/179/116 47/180/47
vt 0.000488 0.166178
vt 0.000488 0.001179
vt 0.165488 0.166178
f 47/181/47 3/182/3 21/183/21
vt 0.001179 0.000488
vt 0.166178 0.000488
vt 0.166178 0.165488
f 3/184/3 66/185/66 17/186/17
vt 0.332155 0.166178
vt 0.167155 0.166178
vt 0.167155 0.001179
f 66/187/66 26/188/26 17/189/17
vt 0.332845 0.000488
vt 0.332845 0.165488
vt 0.167845 0.000488
f 17/190/17 51/191/51 3/192/3
vt 0.498821 0.166178
vt 0.333822 0.166178
vt 0.333822 0.001179
f 51/193/51 78/194/78 37/195/37
vt 0.334512 0.000488
vt 0.499512 0.000488
vt 0.499512 0.165488
f 78/196/78 106/197/106 37/198/37
vt 0.500488 0.166178
vt 0.500488 0.001179
vt 0.665488 0.166178
f 37/199/37 32/200/32 51/201/51
vt 0.666178 0.000488
vt 0.666178 0.165488
vt 0.501179 0.000488
f 7/202/7 83/203/83 21/204/21
vt 0.667155 0.166178
vt 0.667155 0.001179
vt 0.832155 0.166178
f 32/205/32 21/206/21 51/207/51
vt 0.832845 0.165488
vt 0.667845 0.000488
vt 0.832845 0.000488
f 47/208/47 21/209/21 83/210/83
# 70 faces, 210 coords texture

# End of File