####
#
# OBJ File Generated by Meshlab
#
####
# Object Untitled_019-mesh.2.obj
#
# Vertices: 48
# Faces: 48
#
####
mtllib ./Untitled_019-mesh.2.obj.mtl

vn 0.000000 0.000000 1.000000
v -20.298340 158.159302 -137.026794
vn 0.000000 0.000000 1.000000
v -20.298340 155.561203 -137.026794
vn 0.000000 0.000000 1.000000
v -23.752609 161.065903 -137.026794
vn 0.000000 0.000000 1.000000
v -20.809170 151.865997 -137.026794
vn 0.000000 0.000000 1.000000
v -16.054070 157.099396 -137.026794
vn 0.000000 0.000000 1.000000
v -25.810539 155.336594 -137.026794
vn 0.000000 0.000000 1.000000
v -18.758341 161.304993 -137.026794
vn 0.000000 0.000000 1.000000
v -25.493099 159.150299 -137.026794
vn 0.000000 0.000000 1.000000
v -17.685980 160.560898 -137.026794
vn 0.000000 0.000000 1.000000
v -21.436569 155.411407 -137.026794
vn 0.000000 0.000000 1.000000
v -21.436569 158.309204 -137.026794
vn 0.000000 0.000000 1.000000
v -19.986759 161.746307 -137.026794
vn 0.000000 0.000000 1.000000
v -21.048340 155.360306 -137.026794
vn 0.000000 0.000000 1.000000
v -21.048340 158.360306 -137.026794
vn 0.000000 0.000000 1.000000
v -19.524710 152.098099 -137.026794
vn 0.000000 0.000000 1.000000
v -22.497231 156.472000 -137.026794
vn 0.000000 0.000000 1.000000
v -22.497231 157.248505 -137.026794
vn 0.000000 0.000000 1.000000
v -19.987680 155.799606 -137.026794
vn 0.000000 0.000000 1.000000
v -19.987680 157.920898 -137.026794
vn 0.000000 0.000000 1.000000
v -18.344070 152.654694 -137.026794
vn 0.000000 0.000000 1.000000
v -21.798340 158.159302 -137.026794
vn 0.000000 0.000000 1.000000
v -21.798340 155.561203 -137.026794
vn 0.000000 0.000000 1.000000
v -22.571980 161.622498 -137.026794
vn 0.000000 0.000000 1.000000
v -22.109930 151.974304 -137.026794
vn 0.000000 0.000000 1.000000
v -20.660120 155.411407 -137.026794
vn 0.000000 0.000000 1.000000
v -20.660120 158.309204 -137.026794
vn 0.000000 0.000000 1.000000
v -24.410709 153.159698 -137.026794
vn 0.000000 0.000000 1.000000
v -16.603590 154.570297 -137.026794
vn 0.000000 0.000000 1.000000
v -16.286150 158.383896 -137.026794
vn 0.000000 0.000000 1.000000
v -26.042620 156.621094 -137.026794
vn 0.000000 0.000000 1.000000
v -22.109011 155.799606 -137.026794
vn 0.000000 0.000000 1.000000
v -22.109011 157.920898 -137.026794
vn 0.000000 0.000000 1.000000
v -19.599461 156.472000 -137.026794
vn 0.000000 0.000000 1.000000
v -19.599461 157.248505 -137.026794
vn 0.000000 0.000000 1.000000
v -21.287519 161.854507 -137.026794
vn 0.000000 0.000000 1.000000
v -19.548340 156.860306 -137.026794
vn 0.000000 0.000000 1.000000
v -22.548340 156.860306 -137.026794
vn 0.000000 0.000000 1.000000
v -24.748949 160.222595 -137.026794
vn 0.000000 0.000000 1.000000
v -22.347380 156.110306 -137.026794
vn 0.000000 0.000000 1.000000
v -22.347380 157.610306 -137.026794
vn 0.000000 0.000000 1.000000
v -16.842760 159.564499 -137.026794
vn 0.000000 0.000000 1.000000
v -16.162340 155.798706 -137.026794
vn 0.000000 0.000000 1.000000
v -25.934349 157.921906 -137.026794
vn 0.000000 0.000000 1.000000
v -23.338350 152.415497 -137.026794
vn 0.000000 0.000000 1.000000
v -25.253929 154.156006 -137.026794
vn 0.000000 0.000000 1.000000
v -19.749310 156.110306 -137.026794
vn 0.000000 0.000000 1.000000
v -19.749310 157.610306 -137.026794
vn 0.000000 0.000000 1.000000
v -17.347740 153.497894 -137.026794
# 48 vertices, 0 vertices normals


usemtl material_0
vt 0.000488 0.801179
vt 0.198821 0.999512
vt 0.000488 0.999512
f 6/1/6 43/2/43 30/3/30
vt 0.199512 0.800488
vt 0.199512 0.998821
vt 0.001179 0.800488
f 43/4/43 6/5/6 8/6/8
vt 0.398821 0.999512
vt 0.200488 0.999512
vt 0.200488 0.801179
f 8/7/8 6/8/6 45/9/45
vt 0.399512 0.800488
vt 0.399512 0.998821
vt 0.201179 0.800488
f 8/10/8 45/11/45 38/12/38
vt 0.598821 0.999512
vt 0.400488 0.999512
vt 0.400488 0.801179
f 38/13/38 45/14/45 27/15/27
vt 0.599512 0.800488
vt 0.599512 0.998821
vt 0.401179 0.800488
f 38/16/38 27/17/27 3/18/3
vt 0.798821 0.999512
vt 0.600488 0.999512
vt 0.600488 0.801179
f 3/19/3 27/20/27 44/21/44
vt 0.799512 0.800488
vt 0.799512 0.998821
vt 0.601179 0.800488
f 3/22/3 44/23/44 23/24/23
vt 0.800488 0.801179
vt 0.998821 0.999512
vt 0.800488 0.999512
f 23/25/23 44/26/44 37/27/37
vt 0.801179 0.800488
vt 0.999512 0.800488
vt 0.999512 0.998821
f 37/28/37 44/29/44 24/30/24
vt 0.000488 0.601179
vt 0.198821 0.799512
vt 0.000488 0.799512
f 37/31/37 24/32/24 16/33/16
vt 0.199512 0.798821
vt 0.001179 0.600488
vt 0.199512 0.600488
f 16/34/16 24/35/24 39/36/39
vt 0.200488 0.601179
vt 0.398821 0.799512
vt 0.200488 0.799512
f 39/37/39 24/38/24 31/39/31
vt 0.201179 0.600488
vt 0.399512 0.600488
vt 0.399512 0.798821
f 31/40/31 24/41/24 4/42/4
vt 0.400488 0.601179
vt 0.598821 0.799512
vt 0.400488 0.799512
f 31/43/31 4/44/4 22/45/22
vt 0.599512 0.798821
vt 0.401179 0.600488
vt 0.599512 0.600488
f 22/46/22 4/47/4 10/48/10
vt 0.600488 0.601179
vt 0.798821 0.799512
vt 0.600488 0.799512
f 10/49/10 4/50/4 13/51/13
vt 0.799512 0.600488
vt 0.799512 0.798821
vt 0.601179 0.600488
f 13/52/13 4/53/4 25/54/25
vt 0.800488 0.601179
vt 0.998821 0.799512
vt 0.800488 0.799512
f 25/55/25 4/56/4 15/57/15
vt 0.999512 0.600488
vt 0.999512 0.798821
vt 0.801179 0.600488
f 25/58/25 15/59/15 2/60/2
vt 0.000488 0.599512
vt 0.000488 0.401179
vt 0.198821 0.599512
f 2/61/2 15/62/15 18/63/18
vt 0.199512 0.400488
vt 0.199512 0.598821
vt 0.001179 0.400488
f 18/64/18 15/65/15 46/66/46
vt 0.200488 0.599512
vt 0.200488 0.401179
vt 0.398821 0.599512
f 46/67/46 15/68/15 33/69/33
vt 0.399512 0.400488
vt 0.399512 0.598821
vt 0.201179 0.400488
f 33/70/33 15/71/15 36/72/36
vt 0.400488 0.599512
vt 0.400488 0.401179
vt 0.598821 0.599512
f 23/73/23 17/74/17 35/75/35
vt 0.599512 0.400488
vt 0.599512 0.598821
vt 0.401179 0.400488
f 17/76/17 23/77/23 37/78/37
vt 0.600488 0.401179
vt 0.798821 0.599512
vt 0.600488 0.599512
f 35/79/35 17/80/17 40/81/40
vt 0.799512 0.598821
vt 0.601179 0.400488
vt 0.799512 0.400488
f 35/82/35 40/83/40 32/84/32
vt 0.800488 0.401179
vt 0.998821 0.599512
vt 0.800488 0.599512
f 35/85/35 32/86/32 21/87/21
vt 0.999512 0.598821
vt 0.801179 0.400488
vt 0.999512 0.400488
f 35/88/35 21/89/21 11/90/11
vt 0.000488 0.201179
vt 0.198821 0.399512
vt 0.000488 0.399512
f 35/91/35 11/92/11 14/93/14
vt 0.199512 0.200488
vt 0.199512 0.398821
vt 0.001179 0.200488
f 35/94/35 14/95/14 12/96/12
vt 0.200488 0.201179
vt 0.398821 0.399512
vt 0.200488 0.399512
f 12/97/12 14/98/14 26/99/26
vt 0.201179 0.200488
vt 0.399512 0.200488
vt 0.399512 0.398821
f 12/100/12 26/101/26 1/102/1
vt 0.598821 0.399512
vt 0.400488 0.399512
vt 0.400488 0.201179
f 12/103/12 1/104/1 19/105/19
vt 0.401179 0.200488
vt 0.599512 0.200488
vt 0.599512 0.398821
f 12/106/12 19/107/19 47/108/47
vt 0.600488 0.201179
vt 0.798821 0.399512
vt 0.600488 0.399512
f 12/109/12 47/110/47 7/111/7
vt 0.601179 0.200488
vt 0.799512 0.200488
vt 0.799512 0.398821
f 7/112/7 47/113/47 34/114/34
vt 0.998821 0.399512
vt 0.800488 0.399512
vt 0.800488 0.201179
f 7/115/7 34/116/34 36/117/36
vt 0.801179 0.200488
vt 0.999512 0.200488
vt 0.999512 0.398821
f 7/118/7 36/119/36 15/120/15
vt 0.000488 0.001179
vt 0.198821 0.199512
vt 0.000488 0.199512
f 7/121/7 15/122/15 20/123/20
vt 0.199512 0.198821
vt 0.001179 0.000488
vt 0.199512 0.000488
f 7/124/7 20/125/20 9/126/9
vt 0.200488 0.001179
vt 0.398821 0.199512
vt 0.200488 0.199512
f 9/127/9 20/128/20 48/129/48
vt 0.399512 0.198821
vt 0.201179 0.000488
vt 0.399512 0.000488
f 9/130/9 48/131/48 41/132/41
vt 0.400488 0.001179
vt 0.598821 0.199512
vt 0.400488 0.199512
f 41/133/41 48/134/48 28/135/28
vt 0.599512 0.198821
vt 0.401179 0.000488
vt 0.599512 0.000488
f 41/136/41 28/137/28 29/138/29
vt 0.600488 0.001179
vt 0.798821 0.199512
vt 0.600488 0.199512
f 29/139/29 28/140/28 42/141/42
vt 0.799512 0.198821
vt 0.601179 0.000488
vt 0.799512 0.000488
f 29/142/29 42/143/42 5/144/5
# 48 faces, 144 coords texture

# End of File